<svg xmlns="http://www.w3.org/2000/svg" width="860" height="670" viewBox="0 0 860 670" font-family="system-ui, -apple-system, Segoe UI, sans-serif">
<rect width="860" height="670" fill="#fcfcfb"/>
<text x="78" y="26" fill="#1a1a19" font-size="17" font-weight="700">Same verbal request, same API drift: who keeps delivering, and what it costs</text>
<text x="78" y="44" fill="#6f6e6a" font-size="12">One natural-language request · gpt-5.6-sol via OpenRouter · dashed = no human available · API field renamed after fire 4</text>
<text x="78" y="78" fill="#1a1a19" font-size="14" font-weight="600">Reliability — cumulative correct deliveries</text>
<line x1="78" y1="266.5" x2="675" y2="266.5" stroke="#e8e7e4" stroke-width="1"/>
<text x="70" y="270.5" fill="#6f6e6a" font-size="11" text-anchor="end">2</text>
<line x1="78" y1="211.0" x2="675" y2="211.0" stroke="#e8e7e4" stroke-width="1"/>
<text x="70" y="215.0" fill="#6f6e6a" font-size="11" text-anchor="end">5</text>
<line x1="78" y1="155.5" x2="675" y2="155.5" stroke="#e8e7e4" stroke-width="1"/>
<text x="70" y="159.5" fill="#6f6e6a" font-size="11" text-anchor="end">8</text>
<line x1="78" y1="100.0" x2="675" y2="100.0" stroke="#e8e7e4" stroke-width="1"/>
<text x="70" y="104.0" fill="#6f6e6a" font-size="11" text-anchor="end">10</text>
<line x1="78" y1="322.0" x2="675" y2="322.0" stroke="#6f6e6a" stroke-width="1"/>
<line x1="346.6" y1="86" x2="346.6" y2="322.0" stroke="#6f6e6a" stroke-width="1" stroke-dasharray="4 4"/>
<text x="352.6" y="98" fill="#6f6e6a" font-size="11">API drift</text>
<polyline points="78.0,322.0 137.7,299.8 197.4,277.6 257.1,255.4 316.8,233.2 376.5,233.2 436.2,233.2 495.9,233.2 555.6,233.2 615.3,233.2 675.0,233.2" fill="none" stroke="#eb6834" stroke-width="2" stroke-dasharray="5 5" opacity="0.75"/>
<polyline points="78.0,322.0 137.7,299.8 197.4,277.6 257.1,255.4 316.8,233.2 376.5,233.2 436.2,233.2 495.9,211.0 555.6,188.8 615.3,166.6 675.0,144.4" fill="none" stroke="#eb6834" stroke-width="2"/>
<rect x="74.0" y="318.0" width="8" height="8" fill="#eb6834" stroke="#fcfcfb" stroke-width="2"/>
<rect x="133.7" y="295.8" width="8" height="8" fill="#eb6834" stroke="#fcfcfb" stroke-width="2"/>
<rect x="193.4" y="273.6" width="8" height="8" fill="#eb6834" stroke="#fcfcfb" stroke-width="2"/>
<rect x="253.1" y="251.4" width="8" height="8" fill="#eb6834" stroke="#fcfcfb" stroke-width="2"/>
<rect x="312.8" y="229.2" width="8" height="8" fill="#eb6834" stroke="#fcfcfb" stroke-width="2"/>
<rect x="372.5" y="229.2" width="8" height="8" fill="#eb6834" stroke="#fcfcfb" stroke-width="2"/>
<rect x="432.2" y="229.2" width="8" height="8" fill="#eb6834" stroke="#fcfcfb" stroke-width="2"/>
<rect x="491.9" y="207.0" width="8" height="8" fill="#eb6834" stroke="#fcfcfb" stroke-width="2"/>
<rect x="551.6" y="184.8" width="8" height="8" fill="#eb6834" stroke="#fcfcfb" stroke-width="2"/>
<rect x="611.3" y="162.6" width="8" height="8" fill="#eb6834" stroke="#fcfcfb" stroke-width="2"/>
<rect x="671.0" y="140.4" width="8" height="8" fill="#eb6834" stroke="#fcfcfb" stroke-width="2"/>
<polyline points="78.0,322.0 137.7,299.8 197.4,277.6 257.1,255.4 316.8,233.2 376.5,233.2 436.2,211.0 495.9,188.8 555.6,166.6 615.3,144.4 675.0,122.2" fill="none" stroke="#009E73" stroke-width="2"/>
<path d="M 78.0 317.0 L 82.5 326.0 L 73.5 326.0 Z" fill="#009E73" stroke="#fcfcfb" stroke-width="2"/>
<path d="M 137.7 294.8 L 142.2 303.8 L 133.2 303.8 Z" fill="#009E73" stroke="#fcfcfb" stroke-width="2"/>
<path d="M 197.4 272.6 L 201.9 281.6 L 192.9 281.6 Z" fill="#009E73" stroke="#fcfcfb" stroke-width="2"/>
<path d="M 257.1 250.4 L 261.6 259.4 L 252.6 259.4 Z" fill="#009E73" stroke="#fcfcfb" stroke-width="2"/>
<path d="M 316.8 228.2 L 321.3 237.2 L 312.3 237.2 Z" fill="#009E73" stroke="#fcfcfb" stroke-width="2"/>
<path d="M 376.5 228.2 L 381.0 237.2 L 372.0 237.2 Z" fill="#009E73" stroke="#fcfcfb" stroke-width="2"/>
<path d="M 436.2 206.0 L 440.7 215.0 L 431.7 215.0 Z" fill="#009E73" stroke="#fcfcfb" stroke-width="2"/>
<path d="M 495.9 183.8 L 500.4 192.8 L 491.4 192.8 Z" fill="#009E73" stroke="#fcfcfb" stroke-width="2"/>
<path d="M 555.6 161.6 L 560.1 170.6 L 551.1 170.6 Z" fill="#009E73" stroke="#fcfcfb" stroke-width="2"/>
<path d="M 615.3 139.4 L 619.8 148.4 L 610.8 148.4 Z" fill="#009E73" stroke="#fcfcfb" stroke-width="2"/>
<path d="M 675.0 117.2 L 679.5 126.2 L 670.5 126.2 Z" fill="#009E73" stroke="#fcfcfb" stroke-width="2"/>
<polyline points="78.0,322.0 137.7,299.8 197.4,277.6 257.1,255.4 316.8,233.2 376.5,233.2 436.2,233.2 495.9,211.0 555.6,188.8 615.3,166.6 675.0,144.4" fill="none" stroke="#7B52AB" stroke-width="2"/>
<path d="M 78.0 317.0 L 83.0 322.0 L 78.0 327.0 L 73.0 322.0 Z" fill="#7B52AB" stroke="#fcfcfb" stroke-width="2"/>
<path d="M 137.7 294.8 L 142.7 299.8 L 137.7 304.8 L 132.7 299.8 Z" fill="#7B52AB" stroke="#fcfcfb" stroke-width="2"/>
<path d="M 197.4 272.6 L 202.4 277.6 L 197.4 282.6 L 192.4 277.6 Z" fill="#7B52AB" stroke="#fcfcfb" stroke-width="2"/>
<path d="M 257.1 250.4 L 262.1 255.4 L 257.1 260.4 L 252.1 255.4 Z" fill="#7B52AB" stroke="#fcfcfb" stroke-width="2"/>
<path d="M 316.8 228.2 L 321.8 233.2 L 316.8 238.2 L 311.8 233.2 Z" fill="#7B52AB" stroke="#fcfcfb" stroke-width="2"/>
<path d="M 376.5 228.2 L 381.5 233.2 L 376.5 238.2 L 371.5 233.2 Z" fill="#7B52AB" stroke="#fcfcfb" stroke-width="2"/>
<path d="M 436.2 228.2 L 441.2 233.2 L 436.2 238.2 L 431.2 233.2 Z" fill="#7B52AB" stroke="#fcfcfb" stroke-width="2"/>
<path d="M 495.9 206.0 L 500.9 211.0 L 495.9 216.0 L 490.9 211.0 Z" fill="#7B52AB" stroke="#fcfcfb" stroke-width="2"/>
<path d="M 555.6 183.8 L 560.6 188.8 L 555.6 193.8 L 550.6 188.8 Z" fill="#7B52AB" stroke="#fcfcfb" stroke-width="2"/>
<path d="M 615.3 161.6 L 620.3 166.6 L 615.3 171.6 L 610.3 166.6 Z" fill="#7B52AB" stroke="#fcfcfb" stroke-width="2"/>
<path d="M 675.0 139.4 L 680.0 144.4 L 675.0 149.4 L 670.0 144.4 Z" fill="#7B52AB" stroke="#fcfcfb" stroke-width="2"/>
<polyline points="78.0,322.0 137.7,299.8 197.4,277.6 257.1,255.4 316.8,233.2 376.5,211.0 436.2,188.8 495.9,166.6 555.6,144.4 615.3,122.2 675.0,100.0" fill="none" stroke="#2a78d6" stroke-width="2"/>
<circle cx="78.0" cy="322.0" r="4" fill="#2a78d6" stroke="#fcfcfb" stroke-width="2"/>
<circle cx="137.7" cy="299.8" r="4" fill="#2a78d6" stroke="#fcfcfb" stroke-width="2"/>
<circle cx="197.4" cy="277.6" r="4" fill="#2a78d6" stroke="#fcfcfb" stroke-width="2"/>
<circle cx="257.1" cy="255.4" r="4" fill="#2a78d6" stroke="#fcfcfb" stroke-width="2"/>
<circle cx="316.8" cy="233.2" r="4" fill="#2a78d6" stroke="#fcfcfb" stroke-width="2"/>
<circle cx="376.5" cy="211.0" r="4" fill="#2a78d6" stroke="#fcfcfb" stroke-width="2"/>
<circle cx="436.2" cy="188.8" r="4" fill="#2a78d6" stroke="#fcfcfb" stroke-width="2"/>
<circle cx="495.9" cy="166.6" r="4" fill="#2a78d6" stroke="#fcfcfb" stroke-width="2"/>
<circle cx="555.6" cy="144.4" r="4" fill="#2a78d6" stroke="#fcfcfb" stroke-width="2"/>
<circle cx="615.3" cy="122.2" r="4" fill="#2a78d6" stroke="#fcfcfb" stroke-width="2"/>
<circle cx="675.0" cy="100.0" r="4" fill="#2a78d6" stroke="#fcfcfb" stroke-width="2"/>
<rect x="683" y="95.0" width="10" height="10" fill="#2a78d6"/>
<text x="698" y="104.0" fill="#1a1a19" font-size="12">Unify · 10</text>
<rect x="683" y="139.4" width="10" height="10" fill="#7B52AB"/>
<text x="698" y="148.4" fill="#1a1a19" font-size="12">opencode · 8</text>
<rect x="683" y="117.2" width="10" height="10" fill="#009E73"/>
<text x="698" y="126.2" fill="#1a1a19" font-size="12">openclaw · 9</text>
<rect x="683" y="155.4" width="10" height="10" fill="#eb6834"/>
<text x="698" y="164.4" fill="#1a1a19" font-size="12">hermes + human · 8</text>
<line x1="681" y1="233.2" x2="695" y2="233.2" stroke="#eb6834" stroke-width="2" stroke-dasharray="4 3"/>
<text x="698" y="237.2" fill="#1a1a19" font-size="12">hermes alone · 4</text>
<text x="78" y="374" fill="#1a1a19" font-size="14" font-weight="600">Cost — cumulative LLM tokens</text>
<line x1="78" y1="562.5" x2="675" y2="562.5" stroke="#e8e7e4" stroke-width="1"/>
<text x="70" y="566.5" fill="#6f6e6a" font-size="11" text-anchor="end">377k</text>
<line x1="78" y1="507.0" x2="675" y2="507.0" stroke="#e8e7e4" stroke-width="1"/>
<text x="70" y="511.0" fill="#6f6e6a" font-size="11" text-anchor="end">754k</text>
<line x1="78" y1="451.5" x2="675" y2="451.5" stroke="#e8e7e4" stroke-width="1"/>
<text x="70" y="455.5" fill="#6f6e6a" font-size="11" text-anchor="end">1.13M</text>
<line x1="78" y1="396.0" x2="675" y2="396.0" stroke="#e8e7e4" stroke-width="1"/>
<text x="70" y="400.0" fill="#6f6e6a" font-size="11" text-anchor="end">1.51M</text>
<line x1="78" y1="618.0" x2="675" y2="618.0" stroke="#6f6e6a" stroke-width="1"/>
<line x1="346.6" y1="382" x2="346.6" y2="618.0" stroke="#6f6e6a" stroke-width="1" stroke-dasharray="4 4"/>
<text x="352.6" y="394" fill="#6f6e6a" font-size="11">API drift</text>
<polyline points="78.0,519.1 137.7,519.1 197.4,519.1 257.1,519.1 316.8,519.1 376.5,519.1 436.2,519.1 495.9,519.1 555.6,519.1 615.3,519.1 675.0,519.1" fill="none" stroke="#eb6834" stroke-width="2" stroke-dasharray="5 5" opacity="0.75"/>
<polyline points="78.0,519.1 137.7,519.1 197.4,519.1 257.1,519.1 316.8,519.1 376.5,519.1 436.2,519.1 495.9,409.7 555.6,409.7 615.3,409.7 675.0,409.7" fill="none" stroke="#eb6834" stroke-width="2"/>
<rect x="74.0" y="515.1" width="8" height="8" fill="#eb6834" stroke="#fcfcfb" stroke-width="2"/>
<rect x="133.7" y="515.1" width="8" height="8" fill="#eb6834" stroke="#fcfcfb" stroke-width="2"/>
<rect x="193.4" y="515.1" width="8" height="8" fill="#eb6834" stroke="#fcfcfb" stroke-width="2"/>
<rect x="253.1" y="515.1" width="8" height="8" fill="#eb6834" stroke="#fcfcfb" stroke-width="2"/>
<rect x="312.8" y="515.1" width="8" height="8" fill="#eb6834" stroke="#fcfcfb" stroke-width="2"/>
<rect x="372.5" y="515.1" width="8" height="8" fill="#eb6834" stroke="#fcfcfb" stroke-width="2"/>
<rect x="432.2" y="515.1" width="8" height="8" fill="#eb6834" stroke="#fcfcfb" stroke-width="2"/>
<rect x="491.9" y="405.7" width="8" height="8" fill="#eb6834" stroke="#fcfcfb" stroke-width="2"/>
<rect x="551.6" y="405.7" width="8" height="8" fill="#eb6834" stroke="#fcfcfb" stroke-width="2"/>
<rect x="611.3" y="405.7" width="8" height="8" fill="#eb6834" stroke="#fcfcfb" stroke-width="2"/>
<rect x="671.0" y="405.7" width="8" height="8" fill="#eb6834" stroke="#fcfcfb" stroke-width="2"/>
<polyline points="78.0,603.8 137.7,601.4 197.4,595.4 257.1,593.1 316.8,590.7 376.5,588.3 436.2,581.3 495.9,576.2 555.6,570.6 615.3,564.3 675.0,559.1" fill="none" stroke="#009E73" stroke-width="2"/>
<path d="M 78.0 598.8 L 82.5 607.8 L 73.5 607.8 Z" fill="#009E73" stroke="#fcfcfb" stroke-width="2"/>
<path d="M 137.7 596.4 L 142.2 605.4 L 133.2 605.4 Z" fill="#009E73" stroke="#fcfcfb" stroke-width="2"/>
<path d="M 197.4 590.4 L 201.9 599.4 L 192.9 599.4 Z" fill="#009E73" stroke="#fcfcfb" stroke-width="2"/>
<path d="M 257.1 588.1 L 261.6 597.1 L 252.6 597.1 Z" fill="#009E73" stroke="#fcfcfb" stroke-width="2"/>
<path d="M 316.8 585.7 L 321.3 594.7 L 312.3 594.7 Z" fill="#009E73" stroke="#fcfcfb" stroke-width="2"/>
<path d="M 376.5 583.3 L 381.0 592.3 L 372.0 592.3 Z" fill="#009E73" stroke="#fcfcfb" stroke-width="2"/>
<path d="M 436.2 576.3 L 440.7 585.3 L 431.7 585.3 Z" fill="#009E73" stroke="#fcfcfb" stroke-width="2"/>
<path d="M 495.9 571.2 L 500.4 580.2 L 491.4 580.2 Z" fill="#009E73" stroke="#fcfcfb" stroke-width="2"/>
<path d="M 555.6 565.6 L 560.1 574.6 L 551.1 574.6 Z" fill="#009E73" stroke="#fcfcfb" stroke-width="2"/>
<path d="M 615.3 559.3 L 619.8 568.3 L 610.8 568.3 Z" fill="#009E73" stroke="#fcfcfb" stroke-width="2"/>
<path d="M 675.0 554.1 L 679.5 563.1 L 670.5 563.1 Z" fill="#009E73" stroke="#fcfcfb" stroke-width="2"/>
<polyline points="78.0,608.4 137.7,608.4 197.4,608.4 257.1,608.4 316.8,608.4 376.5,608.4 436.2,608.4 495.9,575.3 555.6,575.3 615.3,575.3 675.0,575.3" fill="none" stroke="#7B52AB" stroke-width="2"/>
<path d="M 78.0 603.4 L 83.0 608.4 L 78.0 613.4 L 73.0 608.4 Z" fill="#7B52AB" stroke="#fcfcfb" stroke-width="2"/>
<path d="M 137.7 603.4 L 142.7 608.4 L 137.7 613.4 L 132.7 608.4 Z" fill="#7B52AB" stroke="#fcfcfb" stroke-width="2"/>
<path d="M 197.4 603.4 L 202.4 608.4 L 197.4 613.4 L 192.4 608.4 Z" fill="#7B52AB" stroke="#fcfcfb" stroke-width="2"/>
<path d="M 257.1 603.4 L 262.1 608.4 L 257.1 613.4 L 252.1 608.4 Z" fill="#7B52AB" stroke="#fcfcfb" stroke-width="2"/>
<path d="M 316.8 603.4 L 321.8 608.4 L 316.8 613.4 L 311.8 608.4 Z" fill="#7B52AB" stroke="#fcfcfb" stroke-width="2"/>
<path d="M 376.5 603.4 L 381.5 608.4 L 376.5 613.4 L 371.5 608.4 Z" fill="#7B52AB" stroke="#fcfcfb" stroke-width="2"/>
<path d="M 436.2 603.4 L 441.2 608.4 L 436.2 613.4 L 431.2 608.4 Z" fill="#7B52AB" stroke="#fcfcfb" stroke-width="2"/>
<path d="M 495.9 570.3 L 500.9 575.3 L 495.9 580.3 L 490.9 575.3 Z" fill="#7B52AB" stroke="#fcfcfb" stroke-width="2"/>
<path d="M 555.6 570.3 L 560.6 575.3 L 555.6 580.3 L 550.6 575.3 Z" fill="#7B52AB" stroke="#fcfcfb" stroke-width="2"/>
<path d="M 615.3 570.3 L 620.3 575.3 L 615.3 580.3 L 610.3 575.3 Z" fill="#7B52AB" stroke="#fcfcfb" stroke-width="2"/>
<path d="M 675.0 570.3 L 680.0 575.3 L 675.0 580.3 L 670.0 575.3 Z" fill="#7B52AB" stroke="#fcfcfb" stroke-width="2"/>
<polyline points="78.0,521.9 137.7,400.7 197.4,400.7 257.1,400.7 316.8,400.7 376.5,396.0 436.2,396.0 495.9,396.0 555.6,396.0 615.3,396.0 675.0,396.0" fill="none" stroke="#2a78d6" stroke-width="2"/>
<circle cx="78.0" cy="521.9" r="4" fill="#2a78d6" stroke="#fcfcfb" stroke-width="2"/>
<circle cx="137.7" cy="400.7" r="4" fill="#2a78d6" stroke="#fcfcfb" stroke-width="2"/>
<circle cx="197.4" cy="400.7" r="4" fill="#2a78d6" stroke="#fcfcfb" stroke-width="2"/>
<circle cx="257.1" cy="400.7" r="4" fill="#2a78d6" stroke="#fcfcfb" stroke-width="2"/>
<circle cx="316.8" cy="400.7" r="4" fill="#2a78d6" stroke="#fcfcfb" stroke-width="2"/>
<circle cx="376.5" cy="396.0" r="4" fill="#2a78d6" stroke="#fcfcfb" stroke-width="2"/>
<circle cx="436.2" cy="396.0" r="4" fill="#2a78d6" stroke="#fcfcfb" stroke-width="2"/>
<circle cx="495.9" cy="396.0" r="4" fill="#2a78d6" stroke="#fcfcfb" stroke-width="2"/>
<circle cx="555.6" cy="396.0" r="4" fill="#2a78d6" stroke="#fcfcfb" stroke-width="2"/>
<circle cx="615.3" cy="396.0" r="4" fill="#2a78d6" stroke="#fcfcfb" stroke-width="2"/>
<circle cx="675.0" cy="396.0" r="4" fill="#2a78d6" stroke="#fcfcfb" stroke-width="2"/>
<rect x="683" y="391.0" width="10" height="10" fill="#2a78d6"/>
<text x="698" y="400.0" fill="#1a1a19" font-size="12">Unify · 1.51M</text>
<rect x="683" y="570.3" width="10" height="10" fill="#7B52AB"/>
<text x="698" y="579.3" fill="#1a1a19" font-size="12">opencode · 290k</text>
<rect x="683" y="554.1" width="10" height="10" fill="#009E73"/>
<text x="698" y="563.1" fill="#1a1a19" font-size="12">openclaw · 400k</text>
<rect x="683" y="420.7" width="10" height="10" fill="#eb6834"/>
<text x="698" y="429.7" fill="#1a1a19" font-size="12">hermes + human · 1.42M</text>
<line x1="681" y1="519.1" x2="695" y2="519.1" stroke="#eb6834" stroke-width="2" stroke-dasharray="4 3"/>
<text x="698" y="523.1" fill="#1a1a19" font-size="12">hermes alone · 672k</text>
<text x="376.5" y="648.0" fill="#6f6e6a" font-size="11" text-anchor="middle">self-repair</text>
<text x="495.9" y="648.0" fill="#6f6e6a" font-size="11" text-anchor="middle">human asks hermes to fix it</text>
<text x="78.0" y="634.0" fill="#6f6e6a" font-size="11" text-anchor="middle">setup</text>
<text x="137.7" y="634.0" fill="#6f6e6a" font-size="11" text-anchor="middle">1</text>
<text x="197.4" y="634.0" fill="#6f6e6a" font-size="11" text-anchor="middle">2</text>
<text x="257.1" y="634.0" fill="#6f6e6a" font-size="11" text-anchor="middle">3</text>
<text x="316.8" y="634.0" fill="#6f6e6a" font-size="11" text-anchor="middle">4</text>
<text x="376.5" y="634.0" fill="#6f6e6a" font-size="11" text-anchor="middle">5</text>
<text x="436.2" y="634.0" fill="#6f6e6a" font-size="11" text-anchor="middle">6</text>
<text x="495.9" y="634.0" fill="#6f6e6a" font-size="11" text-anchor="middle">7</text>
<text x="555.6" y="634.0" fill="#6f6e6a" font-size="11" text-anchor="middle">8</text>
<text x="615.3" y="634.0" fill="#6f6e6a" font-size="11" text-anchor="middle">9</text>
<text x="675.0" y="634.0" fill="#6f6e6a" font-size="11" text-anchor="middle">10</text>
</svg>
